{"title":"The Funeral 1996 DVDRip x264-HANDJOB  ","uid":9368460,"size":1592108931,"categoryP":"video","categoryS":"movies","magnet":"?xt=urn:btih:7088a3d77ec2c7fba1c6960010a1ff8c37a42115&amp;dn=The+Funeral+1996+DVDRip+x264-HANDJOB++&amp;tr=udp%3A%2F%2Ftracker.openbittorrent.com%3A80&amp;tr=udp%3A%2F%2Fopen.demonii.com%3A1337&amp;tr=udp%3A%2F%2Ftracker.coppersurfer.tk%3A6969&amp;tr=udp%3A%2F%2Fexodus.desync.com%3A6969","seeders":0,"leechers":0,"uploader":"7","files":-1,"time":1387476685,"description":"Released\t1996\nGenre\t, Crime, Drama\n\nActors\tChristopher Walken, Chris Penn, Annabella Sciorra\n\nPlot\tNew York City, the 1930s. A powerful crime family is caught in a lethal crossfire between union organizers and brutal corporate bosses. Against this turbulent backdrop, the family's three ...\n\nIMDB link\t\n &lt;a href=&quot;\nhttp://www.imdb.com/title/tt0116378/&quot; rel=&quot;nofollow&quot; target=&quot;_NEW&quot;&gt;\nhttp://www.imdb.com/title/tt0116378/&lt;/a&gt;\n\nFormat : Matroska\nFormat version : Version 2\nFile size : 1.48 GiB\nDuration : 1h 35mn\nOverall bit rate : 2 234 Kbps\nWriting application : HandBrake 0.9.5\nWriting library : libmkv 0.6.4.1\n\nVideo\nID : 1\nFormat : AVC\nFormat/Info : Advanced Video Codec\nFormat profile : &lt;a class=&quot;__cf_email__&quot; href=&quot;/cdn-cgi/l/email-protection&quot; data-cfemail=&quot;4e062729260e027d607f&quot;&gt;[email&amp;#160;protected]&lt;/a&gt;&lt;script data-cfhash='f9e31' type=&quot;text/javascript&quot;&gt;\n/* &lt;![CDATA[ */!function(){try{var t=&quot;currentScript&quot;in document?document.currentScript:function(){for(var t=document.getElementsByTagName(&quot;script&quot;),e=t.length;e--;)if(t[e].getAttribute(&quot;data-cfhash&quot;))return t[e]}();if(t&amp;&amp;t.previousSibling){var e,r,n,i,c=t.previousSibling,a=c.getAttribute(&quot;data-cfemail&quot;);if(a){for(e=&quot;&quot;,r=parseInt(a.substr(0,2),16),n=2;a.length-n;n+=2)i=parseInt(a.substr(n,2),16)^r,e+=String.fromCharCode(i);e=document.createTextNode(e),c.parentNode.replaceChild(e,c)}t.parentNode.removeChild(t);}}catch(u){}}()/* ]]&gt; */&lt;/script&gt;\nFormat settings, CABAC : Yes\nFormat settings, ReFrames : 5 frames\nCodec ID : V_MPEG4/ISO/AVC\nDuration : 1h 35mn\nBit rate : 1 518 Kbps\nWidth : 716 pixels\nHeight : 570 pixels\nDisplay aspect ratio : 4:3\nOriginal display aspect ratio : 4:3\nFrame rate mode : Variable\nFrame rate : 25.000 fps\nColor space : YUV\nChroma subsampling : 4:2:0\nBit depth : 8 bits\nScan type : Progressive\nBits/(Pixel*Frame) : 0.149\nStream size : 1.01 GiB (68%)\nWriting library : x264 core 112\nEncoding settings : cabac=1 / ref=6 / deblock=1:-2:-2 / analyse=0x3:0x133 / me=umh / subme=9 / psy=1 / psy_rd=1.00:0.00 / mixed_ref=1 / me_range=24 / chroma_me=1 / trellis=2 / 8x8dct=1 / cqm=0 / deadzone=21,11 / fast_pskip=0 / chroma_qp_offset=-2 / threads=12 / sliced_threads=0 / nr=0 / decimate=1 / interlaced=0 / constrained_intra=0 / bframes=6 / b_pyramid=1 / b_adapt=2 / b_bias=0 / direct=3 / weightb=1 / open_gop=0 / weightp=2 / keyint=250 / keyint_min=25 / scenecut=40 / intra_refresh=0 / rc_lookahead=50 / rc=crf / mbtree=1 / crf=19.0 / qcomp=0.60 / qpmin=3 / qpmax=51 / qpstep=4 / ip_ratio=1.40 / aq=1:1.20\nLanguage : English\nDefault : Yes\nForced : No\nColor primaries : BT.601-6 525, BT.1358 525, BT.1700 NTSC, SMPTE 170M\nTransfer characteristics : BT.709-5, BT.1361\nMatrix coefficients : BT.601-6 525, BT.1358 525, BT.1700 NTSC, SMPTE 170M\n\nAudio #1\nID : 2\nFormat : AC-3\nFormat/Info : Audio Coding 3\nMode extension : CM (complete main)\nCodec ID : A_AC3\nDuration : 1h 35mn\nBit rate mode : Constant\nBit rate : 224 Kbps\nChannel(s) : 2 channels\nChannel positions : Front: L R\nSampling rate : 48.0 KHz\nBit depth : 16 bits\nCompression mode : Lossy\nStream size : 152 MiB (10%)\nLanguage : English\nDefault : Yes\nForced : No\n\nAudio #2\nID : 3\nFormat : AC-3\nFormat/Info : Audio Coding 3\nMode extension : CM (complete main)\nCodec ID : A_AC3\nDuration : 1h 35mn\nBit rate mode : Constant\nBit rate : 448 Kbps\nChannel(s) : 6 channels\nChannel positions : Front: L C R, Side: L R, LFE\nSampling rate : 48.0 KHz\nBit depth : 16 bits\nCompression mode : Lossy\nStream size : 304 MiB (20%)\nLanguage : English\nDefault : No\nForced : No\n\nText\nID : 4\nFormat : VobSub\nCodec ID : S_VOBSUB\nCodec ID/Info : The same subtitle format used on DVDs\nLanguage : Dutch\nDefault : No\nForced : No\n\nMenu\n00:00:00.000 : Chapter 1\n00:06:00.880 : Chapter 2\n00:12:19.440 : Chapter 3\n00:19:20.120 : Chapter 4\n00:24:30.560 : Chapter 5\n00:30:37.440 : Chapter 6\n00:37:46.680 : Chapter 7\n00:42:46.720 : Chapter 8\n00:47:48.840 : Chapter 9\n00:55:25.400 : Chapter 10\n00:59:08.560 : Chapter 11\n01:04:52.280 : Chapter 12\n01:12:22.080 : Chapter 13\n01:16:31.160 : Chapter 14\n01:24:09.280 : Chapter 15","torrent":{"xt":"urn:btih:7088a3d77ec2c7fba1c6960010a1ff8c37a42115","amp;dn":"The+Funeral+1996+DVDRip+x264-HANDJOB++","amp;tr":["udp%3A%2F%2Ftracker.openbittorrent.com%3A80","udp%3A%2F%2Fopen.demonii.com%3A1337","udp%3A%2F%2Ftracker.coppersurfer.tk%3A6969","udp%3A%2F%2Fexodus.desync.com%3A6969"],"infoHash":"7088a3d77ec2c7fba1c6960010a1ff8c37a42115","infoHashBuffer":{"type":"Buffer","data":[112,136,163,215,126,194,199,251,161,198,150,0,16,161,255,140,55,164,33,21]},"announce":[],"urlList":[]}}